<svg width="48" height="48" viewBox="0 0 48 48" fill="none" xmlns="http://www.w3.org/2000/svg">
<path d="M7.5 16.501C8.325 16.501 9 15.826 9 15.001V12.001C9 10.351 10.35 9.00098 12 9.00098H15C15.825 9.00098 16.5 8.32598 16.5 7.50098C16.5 6.67598 15.825 6.00098 15 6.00098H12C8.685 6.00098 6 8.68598 6 12.001V15.001C6 15.826 6.675 16.501 7.5 16.501Z" fill="#5984EF"/>
<path d="M9 39.001H15C15.825 39.001 16.5 39.676 16.5 40.501C16.5 41.326 15.825 42.001 15 42.001H6V33.001C6 32.176 6.675 31.501 7.5 31.501C8.325 31.501 9 32.176 9 33.001V39.001Z" fill="#5984EF"/>
<path d="M33 6.00098C32.175 6.00098 31.5 6.67598 31.5 7.50098C31.5 8.32598 32.175 9.00098 33 9.00098H39V15.001C39 15.826 39.675 16.501 40.5 16.501C41.325 16.501 42 15.826 42 15.001V6.00098H33Z" fill="#5984EF"/>
<path fill-rule="evenodd" clip-rule="evenodd" d="M13.5 22.501C13.5 16.711 18.21 12.001 24 12.001V11.986C29.79 11.986 34.5 16.696 34.5 22.486V26.986C34.5 29.581 33.555 32.071 31.83 33.991C31.275 34.606 30.33 34.666 29.715 34.111C29.1 33.556 29.04 32.611 29.595 31.996C30.825 30.631 31.5 28.846 31.5 27.001V22.501C31.5 21.991 31.455 21.481 31.35 21.001H22.5C20.52 21.001 18.765 20.026 17.67 18.526C16.935 19.681 16.5 21.031 16.5 22.501V27.001C16.5 30.676 19.14 33.796 22.755 34.396C23.565 34.531 24.12 35.311 23.985 36.121C23.85 36.841 23.22 37.366 22.5 37.366C22.455 37.366 22.4138 37.3622 22.3725 37.3585C22.3313 37.3547 22.29 37.351 22.245 37.351C17.175 36.511 13.5 32.146 13.5 27.001V22.501ZM19.8 16.291C20.28 17.296 21.3 18.001 22.5 18.001H29.955C28.59 16.186 26.445 15.001 24 15.001C22.44 15.001 21 15.481 19.8 16.291Z" fill="#5984EF"/>
<path d="M19.5 25.501V27.001C19.5 27.826 20.175 28.501 21 28.501C21.825 28.501 22.5 27.826 22.5 27.001V25.501C22.5 24.676 21.825 24.001 21 24.001C20.175 24.001 19.5 24.676 19.5 25.501Z" fill="#5984EF"/>
<path d="M25.5 25.501C25.5 24.676 26.175 24.001 27 24.001C27.825 24.001 28.5 24.676 28.5 25.501V27.001C28.5 27.826 27.825 28.501 27 28.501C26.175 28.501 25.5 27.826 25.5 27.001V25.501Z" fill="#5984EF"/>
<path d="M29.7413 38.4863C30.9114 39.6564 32.8086 39.6564 33.9787 38.4863L41.4072 31.0578C41.9914 30.4736 42.9386 30.4736 43.5228 31.0578C44.1068 31.6418 44.1071 32.5885 43.5234 33.1729L33.9813 42.7262C32.8099 43.899 30.9095 43.8995 29.7374 42.7275L26.5575 39.5476C25.9729 38.9629 25.9712 38.0155 26.5537 37.4288C27.1393 36.8391 28.0925 36.8374 28.68 37.425L29.7413 38.4863Z" fill="#59CCEF"/>
</svg>
