<svg width="48" height="48" viewBox="0 0 48 48" fill="none" xmlns="http://www.w3.org/2000/svg">
<path d="M36 27C34.35 27 33 25.65 33 24V22.5C33 21.675 32.325 21 31.5 21C30.675 21 30 21.675 30 22.5V24C30 27.315 32.685 30 36 30V33H12V30C15.315 30 18 27.315 18 24V18C18 14.685 20.685 12 24 12C25.65 12 27 10.65 27 9C27 7.35 25.65 6 24 6C22.35 6 21 7.35 21 9V9.525C17.505 10.77 15 14.085 15 18V24C15 25.65 13.65 27 12 27C10.35 27 9 28.35 9 30V36H18C18 39.315 20.685 42 24 42C27.315 42 30 39.315 30 36H36C37.65 36 39 34.65 39 33V27H36ZM24 39C22.35 39 21 37.65 21 36H27C27 37.65 25.65 39 24 39Z" fill="#5984EF"/>
<path d="M40.5 12C40.5 14.4866 38.4866 16.5 36 16.5C33.5134 16.5 31.5 14.4866 31.5 12C31.5 9.51343 33.5134 7.5 36 7.5C38.4866 7.5 40.5 9.51343 40.5 12Z" stroke="#59CCEF" stroke-width="3"/>
</svg>
