<svg width="48" height="48" viewBox="0 0 48 48" fill="none" xmlns="http://www.w3.org/2000/svg">
<path d="M22.9082 3C23.1347 3 23.3611 3 23.5875 3C23.6037 3.02129 23.6147 3.05281 23.636 3.06388C26.1913 4.33803 28.7457 5.61474 31.3061 6.88037C31.9079 7.17761 32.1734 7.64009 32.1717 8.30612C32.1632 11.5929 32.1624 14.8796 32.1717 18.1655C32.1734 18.8502 31.9028 19.3255 31.2814 19.6202C30.6694 19.9098 30.0693 20.2249 29.4369 20.5426C30.6941 22.8277 31.9394 25.089 33.1923 27.3664C33.9116 27.0087 34.5874 26.6868 35.2496 26.3384C35.7408 26.0795 36.2072 26.0744 36.706 26.3231C39.1728 27.5538 41.6438 28.7769 44.1182 29.9931C44.7166 30.2878 45.0009 30.7383 44.9991 31.4086C44.9906 34.6809 44.9915 37.9531 44.9991 41.2254C45.0009 41.8923 44.7276 42.3488 44.125 42.6452C41.6506 43.8606 39.1796 45.0836 36.7128 46.3152C36.2149 46.5639 35.7535 46.5596 35.2564 46.3084C32.8203 45.0785 30.38 43.8572 27.9362 42.6443C27.3353 42.3462 27.0612 41.8872 27.0663 41.2211C27.0774 39.7477 27.0697 38.2742 27.0697 36.8016V36.3528H19.4243C19.4243 37.9702 19.409 39.556 19.4311 41.1411C19.4414 41.8803 19.1434 42.3633 18.4804 42.6895C16.0962 43.8648 13.718 45.0529 11.35 46.259C10.7652 46.5562 10.2443 46.5554 9.66035 46.2607C7.35022 45.0955 5.03073 43.9483 2.70528 42.8155C2.19712 42.5677 1.7494 42.2875 1.5 41.762V30.8814C1.74855 30.3534 2.19797 30.0757 2.70528 29.8279C5.01626 28.7011 7.32298 27.564 9.61693 26.4023C10.2289 26.0923 10.7788 26.0633 11.3814 26.3997C11.9943 26.7421 12.6353 27.0343 13.3026 27.3681C14.5615 25.0788 15.8042 22.82 17.0572 20.5426C16.4001 20.2121 15.7855 19.8953 15.1641 19.5929C14.5947 19.3161 14.3257 18.8698 14.3257 18.2379C14.3291 14.9111 14.33 11.5843 14.3257 8.25758C14.3249 7.62646 14.5887 7.17676 15.1573 6.89826C15.7787 6.59334 16.3967 6.28077 17.0146 5.96904C18.9792 4.97936 20.9437 3.98968 22.9082 3ZM19.4252 33.7406H27.0706C27.0706 33.0601 27.1123 32.4068 27.0603 31.7604C26.9846 30.8107 27.3566 30.2137 28.2367 29.8364C29.1406 29.4489 30.0029 28.9642 30.9103 28.5086C29.6446 26.2107 28.4001 23.9502 27.1514 21.6839C26.1172 22.2008 25.1188 22.6701 24.1501 23.1948C23.5288 23.5312 22.9695 23.5329 22.3465 23.1965C21.3684 22.6684 20.3615 22.1949 19.3409 21.6847C18.0812 23.9758 16.8393 26.2354 15.588 28.5111C16.612 29.0256 17.5798 29.5221 18.5578 29.9982C19.1596 30.292 19.4405 30.7528 19.4277 31.4206C19.4141 32.1837 19.4243 32.9477 19.4243 33.7406H19.4252ZM4.0791 33.2909C4.06293 33.3957 4.05016 33.4365 4.05016 33.4783C4.04931 35.7711 4.05442 38.0639 4.04165 40.3566C4.03995 40.6139 4.17018 40.6939 4.35489 40.7842C5.71168 41.4511 7.06592 42.1222 8.42101 42.7917C8.67126 42.9152 8.92151 43.037 9.19985 43.1732C9.21517 43.0727 9.22964 43.0208 9.22964 42.9697C9.2305 40.6769 9.23475 38.3841 9.22028 36.0913C9.22028 35.9661 9.0926 35.7907 8.97514 35.7251C8.5189 35.4713 8.04309 35.2524 7.57493 35.0207C6.42498 34.4518 5.27502 33.8828 4.0791 33.2909ZM42.4269 33.3216C42.3468 33.3437 42.2907 33.3505 42.243 33.3744C40.6598 34.1562 39.0808 34.9466 37.4925 35.7174C37.2525 35.8341 37.2644 36.0002 37.2652 36.1978C37.2661 38.4054 37.2652 40.6139 37.2669 42.8215C37.2669 42.9245 37.2831 43.0284 37.2925 43.1434C37.3716 43.1238 37.4151 43.1204 37.4508 43.1025C39.0332 42.3198 40.6121 41.5294 42.2013 40.7604C42.432 40.6488 42.4507 40.5006 42.4498 40.2928C42.4464 38.0851 42.4481 35.8767 42.4464 33.6691C42.4464 33.5609 42.4345 33.4536 42.4269 33.3224V33.3216ZM16.9184 10.2122C16.8997 10.2804 16.8801 10.3179 16.8801 10.3553C16.8776 12.6916 16.8733 15.0278 16.8878 17.3649C16.8878 17.4867 17.0291 17.6604 17.1491 17.7217C18.6591 18.4925 20.1776 19.248 21.6953 20.006C21.7668 20.0418 21.8443 20.0656 21.9311 20.0997C21.9498 20.0316 21.9694 19.9941 21.9694 19.9566C21.9719 17.6204 21.9762 15.2841 21.9617 12.9471C21.9617 12.8253 21.8204 12.6515 21.7004 12.5902C20.1904 11.8194 18.6719 11.0639 17.1542 10.3059C17.0827 10.2702 17.0053 10.2463 16.9184 10.2122ZM24.5221 20.1201C24.6915 20.046 24.8055 20.0017 24.9145 19.9472C26.3692 19.2224 27.8188 18.4874 29.2802 17.7762C29.5526 17.6434 29.6267 17.4807 29.625 17.1928C29.6139 15.0125 29.619 12.8312 29.619 10.6509C29.619 10.5154 29.619 10.3792 29.619 10.1909C29.4496 10.2642 29.3356 10.3085 29.2266 10.363C27.7719 11.0878 26.3224 11.822 24.8609 12.534C24.5885 12.6669 24.5144 12.8287 24.5161 13.1166C24.5272 15.2969 24.5221 17.4781 24.5221 19.6585V20.1193V20.1201ZM11.7798 43.1622C11.9807 43.071 12.1203 43.0131 12.2548 42.9458C13.6711 42.2389 15.0824 41.5226 16.5048 40.8293C16.7831 40.6939 16.8878 40.5432 16.8852 40.2246C16.8691 38.0724 16.8767 35.9201 16.8759 33.7679C16.8759 33.6333 16.864 33.4979 16.858 33.3658C16.7993 33.3624 16.7669 33.3514 16.7456 33.3616C15.1514 34.1545 13.5562 34.9458 11.9688 35.7515C11.8751 35.7992 11.7875 35.9653 11.7875 36.076C11.7773 38.4122 11.7798 40.7476 11.7798 43.163V43.1622ZM34.7168 43.1749C34.7168 40.7501 34.7219 38.4139 34.704 36.0785C34.7032 35.9474 34.5474 35.7634 34.4163 35.6961C32.9318 34.9364 31.4389 34.1937 29.9467 33.4493C29.8539 33.4033 29.751 33.3786 29.6207 33.3326C29.6207 35.72 29.6156 38.0553 29.6335 40.3916C29.6343 40.5227 29.791 40.7067 29.922 40.774C31.1146 41.3898 32.3181 41.986 33.5192 42.5864C33.8945 42.7738 34.2716 42.9569 34.7185 43.1758L34.7168 43.1749ZM15.2756 31.234C15.0935 31.131 14.9896 31.0662 14.8807 31.0117C13.5281 30.3346 12.1705 29.666 10.8256 28.9753C10.5796 28.8493 10.3992 28.8637 10.1617 28.9838C8.81171 29.6652 7.45151 30.3287 6.09642 30.9998C5.9764 31.0594 5.86149 31.131 5.74147 31.1991C5.77552 31.2502 5.78488 31.2817 5.80531 31.2919C7.31192 32.0406 8.81852 32.7892 10.3302 33.5277C10.4256 33.5745 10.583 33.5728 10.6784 33.526C12.1867 32.7824 13.6899 32.0278 15.2765 31.2349L15.2756 31.234ZM31.2499 31.194C31.3325 31.2655 31.3588 31.2988 31.3929 31.3158C32.8586 32.0517 34.3218 32.7918 35.7961 33.5098C35.9263 33.5728 36.151 33.5336 36.2949 33.4638C37.6815 32.7918 39.0604 32.1045 40.441 31.4197C40.5483 31.3669 40.6496 31.3022 40.7577 31.24C40.7194 31.1889 40.7083 31.1582 40.687 31.148C39.1804 30.4002 37.6738 29.6507 36.1621 28.9131C36.0676 28.8671 35.9093 28.8714 35.814 28.9191C34.3065 29.6626 32.8033 30.4172 31.2499 31.194ZM18.5076 8.07276C18.5902 8.1443 18.6166 8.17752 18.6506 8.19455C20.1138 8.92957 21.5761 9.66715 23.047 10.3868C23.1696 10.4473 23.379 10.4269 23.5083 10.363C24.9281 9.66715 26.3402 8.95598 27.7532 8.24736C27.8222 8.21244 27.8843 8.16389 27.9524 8.12045C27.9149 8.0685 27.9047 8.03699 27.8834 8.02676C26.3947 7.27897 24.906 6.53117 23.4121 5.79445C23.3185 5.74845 23.1611 5.75527 23.0649 5.80211C21.5591 6.5448 20.0585 7.29771 18.5076 8.07276Z" fill="#5984EF"/>
<ellipse cx="7.50049" cy="19.5" rx="1.5" ry="1.5" fill="#59CCEF"/>
<ellipse cx="7.50049" cy="4.49951" rx="1.5" ry="1.5" fill="#59CCEF"/>
<ellipse cx="39" cy="4.49951" rx="1.5" ry="1.5" fill="#59CCEF"/>
<ellipse cx="39" cy="19.5" rx="1.5" ry="1.5" fill="#59CCEF"/>
</svg>
