<svg width="60" height="60" viewBox="0 0 60 60" fill="none" xmlns="http://www.w3.org/2000/svg">
<path fill-rule="evenodd" clip-rule="evenodd" d="M43.0632 7.50073V16.8757H52.4248V30.0007C52.4248 31.032 51.5823 31.8757 50.5525 31.8757C49.5227 31.8757 48.6801 31.032 48.6801 30.0007V20.6257H14.9783C12.9188 20.6257 11.2337 22.3132 11.2337 24.3757V31.8757H20.5953C20.5953 29.8132 22.2804 28.1257 24.3399 28.1257H39.3185V35.6257C39.3185 36.657 38.476 37.5007 37.4462 37.5007C36.4164 37.5007 35.5739 36.657 35.5739 35.6257V31.8757H24.3399V35.6257H31.8292C32.859 35.6257 33.7016 36.4695 33.7016 37.5007C33.7016 38.532 32.859 39.3757 31.8292 39.3757H20.5953V35.6257H11.2337V48.7507H29.9569C30.9867 48.7507 31.8292 49.5945 31.8292 50.6257C31.8292 51.657 30.9867 52.5007 29.9569 52.5007H7.48901V24.3757C7.48901 20.2507 10.8592 16.8757 14.9783 16.8757H16.8506V15.0007C16.8506 10.8757 20.2208 7.50073 24.3399 7.50073H43.0632ZM20.5953 16.8757H39.3185V11.2507H24.3399C22.2804 11.2507 20.5953 12.9382 20.5953 15.0007V16.8757Z" fill="#5984EF"/>
<path fill-rule="evenodd" clip-rule="evenodd" d="M43.4936 36.7504C44.1115 35.4754 45.422 34.6692 46.845 34.6692H46.9199C48.3429 34.6692 49.6348 35.4754 50.2714 36.7504L51.9939 40.2379L52.2935 40.8567L52.9675 40.9504L56.8058 41.5129C58.21 41.7192 59.3709 42.7129 59.8203 44.0629C60.2509 45.4129 59.8951 46.9129 58.8653 47.9067L56.0943 50.6254L55.6075 51.1129L55.7199 51.7879L56.3751 55.6129C56.5998 57.0192 56.0381 58.4442 54.8773 59.2879C54.222 59.7567 53.4356 60.0004 52.668 60.0004C52.0688 60.0004 51.4697 59.8504 50.9267 59.5692L47.5003 57.7692L46.8825 57.4504L46.2646 57.7692L42.8383 59.5692C42.2953 59.8504 41.6962 60.0004 41.097 60.0004C40.3106 60.0004 39.5429 59.7567 38.8876 59.2879C37.7268 58.4442 37.1464 57.0192 37.3898 55.6129L38.0451 51.7879L38.1574 51.1129L37.6706 50.6254L34.8996 47.9067C33.8698 46.9129 33.4954 45.4129 33.9447 44.0629C34.3754 42.7129 35.5549 41.7192 36.9591 41.5129L40.7974 40.9504L41.4714 40.8567L41.771 40.2379L43.4936 36.7504ZM45.1226 41.9067L43.943 44.2879L41.303 44.6629L37.4648 45.2254L40.2358 47.9442L42.1456 49.8004L41.0409 56.2504L46.8264 53.2129L52.6118 56.2504L51.5072 49.8004L53.4169 47.9442L56.188 45.2254L52.3497 44.6629L49.7097 44.2879L48.5302 41.9067L46.92 38.4375L45.1226 41.9067Z" fill="#59CCEF"/>
</svg>
