<svg width="60" height="60" viewBox="0 0 60 60" fill="none" xmlns="http://www.w3.org/2000/svg">
<path fill-rule="evenodd" clip-rule="evenodd" d="M26.25 33.75C20.0437 33.75 15 28.7062 15 22.5V18.75C15 12.5437 20.0437 7.5 26.25 7.5C32.4562 7.5 37.5 12.5437 37.5 18.75V22.5C37.5 28.7062 32.4562 33.75 26.25 33.75ZM26.25 11.25C22.1062 11.25 18.75 14.6062 18.75 18.75V22.5C18.75 26.6437 22.1062 30 26.25 30C30.3937 30 33.75 26.6437 33.75 22.5V18.75C33.75 14.6062 30.3937 11.25 26.25 11.25Z" fill="#5984EF"/>
<path d="M11.25 48.75H28.125C29.1562 48.75 30 49.5937 30 50.625C30 51.6562 29.1562 52.5 28.125 52.5H7.5V46.875C7.5 40.6687 12.5437 35.625 18.75 35.625H22.2938L22.7438 36.8812C23.2688 38.3625 24.675 39.375 26.25 39.375C27.2812 39.375 28.125 40.2187 28.125 41.25C28.125 42.2812 27.2812 43.125 26.25 43.125C23.5688 43.125 21.1125 41.6625 19.7812 39.375H18.75C14.6062 39.375 11.25 42.7312 11.25 46.875V48.75Z" fill="#5984EF"/>
<path fill-rule="evenodd" clip-rule="evenodd" d="M57.4312 54.7875L50.6625 48.0188C53.4375 44.0063 53.0437 38.475 49.4625 34.8938C45.4312 30.8625 38.9062 30.8625 34.875 34.8938C30.8438 38.925 30.8438 45.45 34.875 49.4813C38.4562 53.0625 43.9875 53.4375 48 50.6813L54.7687 57.45C55.5 58.1813 56.6812 58.1813 57.4125 57.45C58.1437 56.7188 58.1437 55.5376 57.4125 54.8063L57.4312 54.7875ZM37.5375 46.8376C34.9687 44.2688 34.9687 40.125 37.5375 37.5563C40.1062 34.9875 44.25 34.9875 46.8187 37.5563C49.3875 40.125 49.3875 44.2688 46.8187 46.8376C44.25 49.4063 40.1062 49.4063 37.5375 46.8376Z" fill="#59CCEF"/>
</svg>
