<?xml version="1.0" encoding="UTF-8"?>
<svg xmlns="http://www.w3.org/2000/svg" version="1.1" viewBox="0 0 12742 4419">
  <defs>
    <style>
      .cls-1 {
        fill: #9b1fec;
      }

      .cls-2 {
        fill: #9c20ec;
      }

      .cls-3 {
        fill: #9b1eec;
      }

      .cls-4 {
        fill: #9c1fec;
      }
    </style>
  </defs>
  <!-- Generator: Adobe Illustrator 28.7.1, SVG Export Plug-In . SVG Version: 1.2.0 Build 142)  -->
  <g>
    <g id="Layer_1">
      <path class="cls-1" d="M653.8,1222.7c.8,3.2-1.8,4.8-3.2,6.9-9.8,14.3-20,28.3-29.6,42.7-54.9,82.5-98.5,170.6-131,264.2-18.4,52.9-32.8,106.9-43.4,161.8-5.5,28.4-9.9,57-13.1,85.8-2.7,24.2-4.7,48.4-6.2,72.6-2.3,37.6-2.2,75.2-.9,112.8,1,29.3,3.5,58.4,6.8,87.6,5.5,47.3,13.7,94.2,24.7,140.5.4,1.9.8,3.8,1.3,6.5-10.9-.6-20.6-3.9-30.6-5.7-10.2-1.8-20.2-4-30.4-5.9-10.1-1.9-20.3-3.8-30.4-5.6-10.2-1.7-20.4-3.2-30.6-4.8-10.2-1.6-20.4-3.3-30.6-4.7-10.2-1.5-20.4-2.8-30.7-4-10.2-1.2-20.5-2.2-30.8-3.3-9.9-1.1-19.8-2.2-29.8-3.1-10.3-1-20.6-1.7-30.9-2.5-10.3-.8-20.6-1.6-30.9-2.3s-20.6-1.5-30.9-2.1c-10.3-.6-20.6-1.2-30.9-1.7-10.3-.5-20.6-1-30.9-1.2-10.3-.2-20.6-.2-31.1-.3-.7-2.3-1.5-4.1-1.8-6-3.9-25.7-8.2-51.3-11.5-77-2.9-22.4-4.7-45-6.8-67.6-2.3-24.9-3.7-49.8-4.4-74.8-.2-5.9-1.5-11.9-2.9-18.4-.5-26-.5-51.3-.5-77.6,3.1-6.7,2.9-13.1,3.4-19.3.6-7,.4-14,.7-21,.4-9,1.2-17.9,1.6-26.9.1-3.3,1.6-5.6,3.7-7.9,8.8-10,17.4-20.2,26.3-30.1,44.4-50.1,90.8-98.4,139.1-144.8,48.3-46.4,98.4-90.8,150.2-133.3,99.5-81.8,204.5-155.7,314.4-222.9,3.7-2.2,7.5-4.3,11.9-6.5.7,0,.6-.1.6-.1Z"/>
      <path class="cls-3" d="M566.1,2404.4c20.9,6.2,41,12.1,61,18.3,19.7,6.2,39.3,12.6,58.9,19.2,19.9,6.7,39.7,13.6,59.4,20.7,19.4,7,38.8,14.2,58,21.6,19.6,7.5,39.1,15.2,58.6,23.1,19.1,7.7,38.2,15.8,57.2,23.8,19.3,8.1,38.3,16.7,58.4,25.4.7-12.5.3-23.8.4-35,0-11.3,0-22.7,0-34,0-11.3,0-22.7,0-34v-171c0-11.3,0-22.7,0-34,0-11.3.1-22.7.1-34,0-11.7,0-23.3,0-35,0-11.3,0-22.7,0-34v-34c0-11.3,0-22.7,0-34v-34c0-11.3,0-22.7,0-34v-34c0-11.3,0-22.7,0-34,0-11.7,0-23.3,0-35v-34c0-11.3,0-22.7,0-34,0-11.3,0-22.7-.1-34,0-11.3,0-22.7,0-34,0-11.3,0-22.7,0-34v-103c0-11.3,0-22.7,0-34,0-11.3,0-22.7,0-34,0-11.3,0-22.7,0-34v-34c0-11.3,0-22.7,0-34,0-11.7,0-23.3,0-35,0-11.3,0-22.7,0-34v-34c0-11.3,0-22.7,0-34,0-11.3,0-22.7,0-34,0-11.3,0-22.7,0-34s0-22.7,0-34c0-11.3,0-22.7,0-34,0-11.7,0-23.3,0-35,0-11.3,0-22.7,0-34,0-11.3,0-22.7,0-34v-34.3c2.9-1.4,5.5-2.9,8.2-4,117.9-51,239-92.7,363.6-123.8,22.9-5.7,46-10.7,69-16,2-.4,4-.6,5.9-1.1,2.9-.7,5.2.4,7.4,2.1,4.7,3.8,7,8.9,7.8,14.6.8,5.9,1.5,11.9,1.5,17.9,0,49.7,0,99.3-.2,149-.1,47.7-.6,95.3-.6,143-.1,508.2-.2,1016.5-.3,1524.8v12c2.9,1.4,5.2,2.6,7.6,3.7,91.7,39,184.9,73.9,280.5,102.2,67.7,20.1,136.2,36.7,205.8,49.4,33.7,6.1,67.5,11.9,101.6,15.8,28.8,3.3,57.6,6.5,86.4,9.2,15.2,1.4,30.6,1.9,45.9,2.6,14,.6,28,1.4,41.9,1.3,29.7-.3,59.3-.4,88.9-1.9,28.9-1.5,57.8-4.3,86.6-7,19.9-1.8,39.8-4.1,59.6-6.7,23.1-3.1,46.1-6.5,69.1-10.3,33.2-5.5,66.1-11.9,99-19.3,91.2-20.3,180.3-47.3,267.3-81.2,3.7-1.4,7.5-2.8,11.3-4,2.5-.8,5.1-1.3,7.6.3-2.7,7.3-15.1,24-46.3,62.1-115.3,140.8-250.2,259.1-405.2,354.3-154.4,94.8-320.2,161.5-497.2,199.9-162,35.1-325.7,44.8-490.8,29.6-160.9-14.9-316.2-53.2-465.5-115.2-136.8-56.9-263.4-131.3-379.6-223.2-112.8-89.2-212-191.6-297.4-307.3-87.8-118.9-157.8-247.6-210.1-385.8-18.5-48.9-35.7-101.7-36.9-114.3,1.4-.3,2.9-.9,4.4-.9,5,0,10,.3,15,.6,3,.2,6,.6,9,.8,23.9,1.6,47.9,2.7,71.8,4.7,22.6,1.9,45,4.8,67.5,7.1,35.1,3.6,70,8.9,104.8,14.8,43.3,7.3,86.4,15.8,129.1,26.4,31.3,7.8,62.4,16.5,94.4,25Z"/>
      <path class="cls-1" d="M2880,2120.9c-20.1,2-39.4,3.8-58.6,6-17.5,2-35,4.5-52.5,6.8-2.9.4-5.8.6-8.8.9-1.8-3.4-.6-6.4-.2-9.2,3.7-26,8-52,11-78.1,2.4-21.2,3.3-42.5,4.8-63.7,2.1-28.3,2.2-56.6,1.5-84.9-.6-21.6-1.8-43.2-3.3-64.8-1.2-17.6-2.7-35.2-4.8-52.7-3.3-27.8-7.8-55.4-13-82.9-10.8-56.4-25.7-111.6-44.7-165.7-14.8-42.2-32-83.3-51.5-123.5-40.6-83.8-90.6-161.5-149.6-233.4-51.6-62.8-109.1-119.6-172.4-170.5-55.7-44.8-115-84.2-177.9-118.2-2-1.1-4-2.3-6-3.6-.4-.3-.6-1.1-1-2,6.1.8,12.1,1.3,17.9,2.2,31.2,5,62.5,9.9,93.6,15.3,57.4,10,114.2,22.8,170.7,37.3,128.2,32.9,253.2,75.6,375.5,126.5,2.1.9,4.2,1.6,6.5,2.4,1.1-2.5-.8-3.2-1.7-4.1-37.9-37-76.2-73.7-115.5-109.2-32.1-29.1-64.8-57.6-98-85.3-109.8-91.5-225.8-174.2-350.7-243.9-110.6-61.7-225.9-112.5-346.9-149.9-53.8-16.6-108.5-29.5-163.9-39.8-32.4-6-65-11-97.7-15.2-20.8-2.7-41.7-4.8-62.6-6.7-29.2-2.7-58.4-5.1-87.6-7.2-16.3-1.2-32.6-2-48.9-2.2-43.7-.3-87.3-.6-131,0-21.3.2-42.6,2-63.9,3.2-13.3.7-26.6,1.5-39.9,2.7-16.9,1.5-33.8,3.2-50.7,5.1-12.6,1.4-25.2,2.8-37.7,4.5-20.8,2.8-41.6,5.3-62.3,8.9-31.5,5.4-62.9,11.3-94.2,17.7-46.3,9.5-92.1,21.2-137.6,34.1-3.8,1.1-7.6,2.1-11.8,2.2,2.1-1.4,4.1-2.9,6.2-4.1,68.3-38.6,139-72,212.2-100.1,68.2-26.1,138.2-46.2,209.3-62.7,34.7-8.1,69.6-15.2,104.7-21,20.7-3.4,41.5-6.1,62.3-8.9,28.7-3.8,57.6-6.3,86.5-8.3,44.3-3.2,88.6-4.1,132.9-2.9,28.3.8,56.6,2.1,84.8,4.9,17.2,1.8,34.5,2.9,51.7,4.8,18.9,2.1,37.7,4.5,56.5,7.3,21.7,3.2,43.4,6.6,65.1,10.2,44.7,7.5,88.9,17.3,132.7,28.8,116.8,30.5,228.9,73.2,335.7,129.5,82.2,43.3,159.7,93.8,232.8,151.1,66.5,52.1,128.4,109.3,186,171,70.2,75.1,134.3,155.2,190,241.8,60.6,94.2,110,194,148.9,299.1,30.2,81.7,53.6,165.2,71,250.6,7,34.3,12.5,68.8,15.8,103.6,2.8,29.5,5.2,59,8.1,88.5,5.2,54.2,6.2,108.4,5,162.8-.6,27.6-2,55.2-4.8,82.8-1.7,16.6-2.9,33.2-4.7,49.7-1.8,16.2-4.1,32.4-6.2,48.6-.9,7.1-4.8,11.4-11.9,13-7,1.6-13.9.8-20.9.4-28.6-1.8-57.1-4.6-85.8-5.2-35.3-.8-70.6,0-106,.8-23.3.6-46.6,2.4-69.8,3.8-7.3.4-14.6,1.2-22.8,1.8Z"/>
      <path class="cls-3" d="M1631.8,1880.9c5.7,0,10.3,0,15,0,36.5.3,70.7-8.6,102.4-26.2,62.4-34.6,104.3-86.1,124.8-154.4,9.3-31,11.3-62.7,8.3-94.9-2.5-27.2-9.4-53-21.2-77.6-8.7-18.1-19.7-34.8-32.6-50.2-15.9-19-33.7-36-53.6-50.7-21.5-15.9-45.2-26.8-71.8-31-11.5-1.8-23.1-2.9-34.8-1.9-17,1.4-34,.4-50.4-4.6-7.3-2.2-8.7-7.5-3.6-13.2,1.3-1.5,3-2.7,4.6-3.7,21.3-13.6,42.7-27.2,65.2-38.8,47.2-24.2,96.8-41,149-50.3,19.7-3.5,39.5-6.1,59.5-6.9,10.6-.4,21.3-1.2,31.9-1.4,33-.4,65.8,2.4,98.5,7.3,31.3,4.8,62,12,92.1,22.2,73.1,24.8,135.9,65.4,188.5,121.9,15.9,17.1,30.6,35.2,43.9,54.4,24.6,35.6,40.3,74.9,50,116.8,5.6,24.4,8.9,49.1,11.5,74,.5,5,.6,10,.7,15,.1,5.7,0,11.3.2,17,.9,27.1-2.2,53.9-6.8,80.5-6.7,39.4-16,78.3-28.7,116.2-29.2,87.1-74.2,165.1-136.1,233-87.9,96.5-193.8,165-318.5,203.9-37.6,11.7-75.9,20.1-114.8,25.7-36.7,5.3-73.5,8.1-110.5,8-37.3-.1-74.6-.6-112-1-19.3-.2-38.6-.7-57.9-1-14.9-.2-19.6-4.7-19.6-19.9,0-75.7.2-151.3.3-226.9,0-23.3,0-46.7.7-70,.8-32.3,2.2-64.6,3.1-96.9.5-17.3.4-34.7.6-52,0-3.3.2-6.7.9-9.9,1.3-6,5.1-10.1,11.2-11.4,3.5-.8,7.2-1.1,10.9-1.1,32.7,0,65.3,0,99,0Z"/>
      <path class="cls-1" d="M1770.5,743.5c-3.9.3-6.9.7-9.9.8-18,1-36,1.5-53.9,2.9-25.9,2-51.7,4.5-77.6,7.1-19.5,2-39.1,4.1-58.5,6.7-23.1,3.1-46.2,6.3-69.1,10.3-30.5,5.3-60.9,11.2-91.3,17.1-48.7,9.5-96.8,21.5-144.7,34.6-139.3,38.4-274.1,89.1-404.8,150.8-121.9,57.6-239.1,123.5-352.2,196.7-70.2,45.5-138.4,93.9-204.3,145.4-55.7,43.5-109.7,89-161.9,136.7-33.5,30.6-66.1,62-98,94.2-2.2,2.3-4,5.3-8.2,6.3,2.8-13.1,5.3-25.8,8.2-38.4,19-82.6,44.2-163.2,75.9-241.8,35.9-88.9,79.4-173.8,130.6-254.9,52.6-83.3,112.3-161.3,179.4-233.5,8.8-9.5,17.7-19,26.8-28.3,2.5-2.5,5.6-4.8,8.8-6.4,89.9-46.1,182.3-86.5,277.6-120.1,73.2-25.8,147.7-47.4,223.4-64.5,42.6-9.6,85.4-17.8,128.5-24.2,28.6-4.2,57.4-7.7,86.2-10.8,23.8-2.6,47.7-4.3,71.6-6.1,64.5-5,129.2-4.7,193.8-2.9,23,.7,45.9,2,68.8,3.9,31.2,2.6,62.3,5.6,93.4,9.2,26.1,3,52.2,6.4,78.2,10.6,52.6,8.5,104.7,19.8,156,34.3,75.5,21.4,148.4,49.4,219.8,81.9,70.8,32.2,138.9,69.1,205,110.1,2.8,1.7,5.4,3.7,7.7,6.6-8.6-1.4-17.2-2.8-25.8-4.2-20.4-3.1-40.8-6.4-61.2-9.3-17.8-2.6-35.6-5-53.4-7.1-15.2-1.8-30.4-3.3-45.7-4.8-19.9-1.9-39.8-3.6-59.7-5.3-11.3-.9-22.6-1.8-33.9-2.2-27.3-1.1-54.6-2-81.9-2.9-14-.5-28-1.1-42-.9-33.7.4-67.3,1.2-101.9,2Z"/>
      <path class="cls-1" d="M2653.2,2448.1c21-41.8,39.1-84,54.6-127.3.4-1.3,1.1-2.5,1.4-3.8.7-3.9,3.4-5.4,7-6.1,11.5-2.1,22.9-4.3,34.4-6.2,19.7-3.3,39.4-6.6,59.2-9.3,19.4-2.7,39-4.8,58.5-6.9s39.1-3.8,58.7-5.2c15.6-1.1,31.3-2.2,46.9-2.3,37-.3,74-.6,110.9,0,23.6.4,47.2,2.6,70.8,4,1,0,1.9.5,2.7.7,2.1,2.3.8,4.5.2,6.7-13.2,48.9-28.7,97-46.4,144.5-18,48.1-38.4,95.1-60.8,141.2-1.9,3.9-3.9,7.7-5.8,11.5-2.1.8-3.9,1.7-5.8,2.3-44.7,13.4-88.2,30-131.6,47-46.2,18-92.3,36.3-138.6,54.1-61,23.4-123.8,40.9-187.5,55.6-36.7,8.4-73.6,15.5-110.8,21.3-20,3.1-40.2,5.5-61.7,8.4,1.6-2.5,2.2-3.9,3.2-4.9,2.8-2.8,5.9-5.4,8.7-8.2,37.2-36.4,72.1-74.9,104.2-115.8,49.1-62.5,91.7-129.3,127.6-201.1Z"/>
      <path class="cls-4" d="M2363.6,1376.9c-3.2,0-4.3-2.9-5.9-4.8-15.9-18.4-32.7-36-50.6-52.5-66.3-61.1-143-102.7-231.3-122.1-27-5.9-54.3-10-82-11-16.6-.6-33.3-1.6-49.9-1.3-88.7,1.8-173.7,20.2-253.5,59.7-41.1,20.3-79.1,45.3-114.3,74.7-18.2,15.2-35.6,31.1-52,48.2-.9.9-2,1.7-3.2,2.8-7.1-2.6-10.6-7.6-10.8-15-.1-5.7,0-11.3,0-17,0-34.7,0-69.3,0-103.9s0-6.7.3-10c.8-8.6,4.2-15.9,11-21.6,34.2-28.7,68.9-56.8,106.6-80.8,34.4-21.9,70.6-40,109.8-52.1,19.1-5.9,38.7-9.7,58.4-13.2,23.9-4.2,48-7.6,72.2-9.5,29.9-2.3,59.8-3.4,89.8-1.2,23.6,1.7,47.1,4.3,70.2,9,53,10.9,102.6,30.5,148.6,59.1,31.6,19.7,60.6,42.3,85.3,70.3,24.4,27.6,44.6,58,61.5,90.7,15.8,30.5,28.2,62.5,39.2,95,.5,1.6.7,3.2.9,5.7-.2.8-.2.8-.2.8Z"/>
      <path class="cls-2" d="M1965.8,968.7c-14.1-1.5-27.3-2.9-40.6-4.3-19.6-2.1-39.3-1.9-58.9-1.4-71.4,2-139.9,17.1-205,46.8-42.1,19.2-80.9,43.6-117.1,72.2-3.4,2.7-6.4,5.8-9.6,8.8-1.9,1.8-3.6,3.9-5.7,5.6-4.8,4-10.7,4.2-15.6.3-1.4-1.1-2.6-3.1-2.9-4.9-.5-2.6-.2-5.3-.2-8-.2-45-.4-90-.5-135,0-3.3-.1-6.7.2-10,1-10.2,6-17.6,16.2-20.5,4.8-1.4,9.7-2.6,14.6-3.2,26.4-3.4,52.8-7.2,79.3-9.7,27.8-2.7,55.8-4.3,83.8-5,28.7-.7,57.3-.3,85.9.5,78.8,2.1,152.3,23.3,220.8,62,3.8,2.1,7.4,4.6,10.9,7,3.1,2.1,5.4,4.9,5.6,9.6-10.4-.3-20-3.9-30-5.4-10.2-1.5-20.3-3.6-31.3-5.5Z"/>
      <path class="cls-4" d="M2363.6,1376.8c.5.3,1.2.6,1.3,1.1.1.4-.4,1-.7,1.5-.3-.5-.7-1.1-.9-2.1.1-.5.2-.5.2-.5Z"/>
      <path class="cls-1" d="M653.9,1222.9c.3-.3.6-.8.8-1.2,0,.4-.1.8-.6,1.1-.4,0-.3,0-.3,0Z"/>
      <path class="cls-3" d="M3385,2050c0-143.3,26.7-269.2,80-377.5,55-108.3,129.2-191.7,222.5-250s197.5-87.5,312.5-87.5,184.2,20,257.5,60c75,40,132.5,92.5,172.5,157.5v-197.5h427.5v1395h-427.5v-197.5c-41.7,65-100,117.5-175,157.5-73.3,40-159.2,60-257.5,60s-216.7-29.2-310-87.5c-93.3-60-167.5-144.2-222.5-252.5-53.3-110-80-236.7-80-380ZM4430,2052.5c0-106.7-30-190.8-90-252.5-58.3-61.7-130-92.5-215-92.5s-157.5,30.8-217.5,92.5c-58.3,60-87.5,143.3-87.5,250s29.2,191.7,87.5,255c60,61.7,132.5,92.5,217.5,92.5s156.7-30.8,215-92.5c60-61.7,90-145.8,90-252.5ZM5594.3,900v1850h-427.5V900h427.5ZM7684.1,1340c173.3,0,310.8,52.5,412.5,157.5,103.3,105,155,250.8,155,437.5v815h-425v-757.5c0-90-24.2-159.2-72.5-207.5-46.7-50-111.7-75-195-75s-149.2,25-197.5,75c-46.7,48.3-70,117.5-70,207.5v757.5h-425v-757.5c0-90-24.2-159.2-72.5-207.5-46.7-50-111.7-75-195-75s-149.2,25-197.5,75c-46.7,48.3-70,117.5-70,207.5v757.5h-427.5v-1395h427.5v175c43.3-58.3,100-104.2,170-137.5,70-35,149.2-52.5,237.5-52.5s198.3,22.5,280,67.5c83.3,45,148.3,109.2,195,192.5,48.3-76.7,114.2-139.2,197.5-187.5,83.3-48.3,174.2-72.5,272.5-72.5ZM9975.6,1355l-875,2057.5h-460l320-710-567.5-1347.5h477.5l322.5,872.5,320-872.5h462.5ZM10557.7,1587.5c50-76.7,112.5-136.7,187.5-180,75-45,158.3-67.5,250-67.5v452.5h-117.5c-106.7,0-186.7,23.3-240,70-53.4,45-80,125-80,240v647.5h-427.5v-1395h427.5v232.5ZM11114.5,2050c0-143.3,26.7-269.2,80-377.5,55-108.3,129.2-191.7,222.5-250s197.5-87.5,312.5-87.5,184.2,20,257.5,60c75,40,132.5,92.5,172.5,157.5v-197.5h427.5v1395h-427.5v-197.5c-41.7,65-100,117.5-175,157.5-73.3,40-159.2,60-257.5,60s-216.7-29.2-310-87.5c-93.3-60-167.5-144.2-222.5-252.5-53.3-110-80-236.7-80-380ZM12159.5,2052.5c0-106.7-30-190.8-90-252.5-58.3-61.7-130-92.5-215-92.5s-157.5,30.8-217.5,92.5c-58.3,60-87.5,143.3-87.5,250s29.2,191.7,87.5,255c60,61.7,132.5,92.5,217.5,92.5s156.7-30.8,215-92.5c60-61.7,90-145.8,90-252.5Z"/>
      <path class="cls-1" d="M5709.9,3805.8c0,28.5-6.5,54.6-19.6,78.4-13.1,23.3-33.1,42.2-60.2,56.7-27.1,14.5-60.7,21.7-100.8,21.7h-74.2v176.4h-119.7v-491.4h193.9c39.2,0,72.3,6.8,99.4,20.3,27.1,13.5,47.4,32.2,60.9,56,13.5,23.8,20.3,51.1,20.3,81.9ZM5520.2,3867.4c22.9,0,39.9-5.4,51.1-16.1,11.2-10.7,16.8-25.9,16.8-45.5s-5.6-34.8-16.8-45.5c-11.2-10.7-28.2-16.1-51.1-16.1h-65.1v123.2h65.1ZM5950,4144.6c-38.3,0-72.8-8.2-103.6-24.5-30.3-16.3-54.4-39.7-72.1-70-17.3-30.3-25.9-65.8-25.9-106.4s8.9-75.4,26.6-105.7c17.7-30.8,42-54.4,72.8-70.7,30.8-16.3,65.3-24.5,103.6-24.5s72.8,8.2,103.6,24.5c30.8,16.3,55.1,39.9,72.8,70.7,17.7,30.3,26.6,65.6,26.6,105.7s-9.1,75.6-27.3,106.4c-17.7,30.3-42.2,53.7-73.5,70-30.8,16.3-65.3,24.5-103.6,24.5ZM5950,4041c22.9,0,42.2-8.4,58.1-25.2,16.3-16.8,24.5-40.8,24.5-72.1s-7.9-55.3-23.8-72.1c-15.4-16.8-34.5-25.2-57.4-25.2s-42.7,8.4-58.1,25.2c-15.4,16.3-23.1,40.4-23.1,72.1s7.5,55.3,22.4,72.1c15.4,16.8,34.5,25.2,57.4,25.2ZM6778.6,3748.4l-105.7,390.6h-132.3l-61.6-253.4-63.7,253.4h-131.6l-106.4-390.6h119.7l55.3,279.3,65.8-279.3h126.7l66.5,277.9,54.6-277.9h112.7ZM7192.5,3937.4c0,11.2-.7,22.9-2.1,35h-270.9c1.9,24.3,9.6,42.9,23.1,56,14,12.6,31,18.9,51.1,18.9,29.9,0,50.6-12.6,62.3-37.8h127.4c-6.5,25.7-18.4,48.8-35.7,69.3-16.8,20.5-38,36.6-63.7,48.3-25.7,11.7-54.4,17.5-86.1,17.5s-72.3-8.2-102.2-24.5c-29.9-16.3-53.2-39.7-70-70-16.8-30.3-25.2-65.8-25.2-106.4s8.2-76.1,24.5-106.4c16.8-30.3,40.1-53.7,70-70,29.9-16.3,64.2-24.5,102.9-24.5s71.4,7.9,100.8,23.8c29.4,15.9,52.3,38.5,68.6,67.9,16.8,29.4,25.2,63.7,25.2,102.9ZM7070,3905.9c0-20.5-7-36.9-21-49-14-12.1-31.5-18.2-52.5-18.2s-37.1,5.8-51.1,17.5c-13.5,11.7-21.9,28.2-25.2,49.7h149.8ZM7375.3,3813.5c14-21.5,31.5-38.3,52.5-50.4,21-12.6,44.3-18.9,70-18.9v126.7h-32.9c-29.9,0-52.3,6.5-67.2,19.6-14.9,12.6-22.4,35-22.4,67.2v181.3h-119.7v-390.6h119.7v65.1ZM7923.2,3937.4c0,11.2-.7,22.9-2.1,35h-270.9c1.9,24.3,9.6,42.9,23.1,56,14,12.6,31,18.9,51.1,18.9,29.9,0,50.6-12.6,62.3-37.8h127.4c-6.5,25.7-18.4,48.8-35.7,69.3-16.8,20.5-38,36.6-63.7,48.3s-54.4,17.5-86.1,17.5-72.3-8.2-102.2-24.5c-29.9-16.3-53.2-39.7-70-70-16.8-30.3-25.2-65.8-25.2-106.4s8.2-76.1,24.5-106.4c16.8-30.3,40.1-53.7,70-70,29.9-16.3,64.2-24.5,102.9-24.5s71.4,7.9,100.8,23.8c29.4,15.9,52.3,38.5,68.6,67.9,16.8,29.4,25.2,63.7,25.2,102.9ZM7800.7,3905.9c0-20.5-7-36.9-21-49-14-12.1-31.5-18.2-52.5-18.2s-37.1,5.8-51.1,17.5c-13.5,11.7-21.9,28.2-25.2,49.7h149.8ZM7962.6,3943c0-40.1,7.5-75.4,22.4-105.7,15.4-30.3,36.2-53.7,62.3-70,26.1-16.3,55.3-24.5,87.5-24.5s49,5.4,70,16.1c21.5,10.7,38.3,25.2,50.4,43.4v-181.3h119.7v518h-119.7v-56c-11.2,18.7-27.3,33.6-48.3,44.8-20.5,11.2-44.6,16.8-72.1,16.8s-61.4-8.2-87.5-24.5c-26.1-16.8-46.9-40.4-62.3-70.7-14.9-30.8-22.4-66.3-22.4-106.4ZM8255.2,3943.7c0-29.9-8.4-53.4-25.2-70.7-16.3-17.3-36.4-25.9-60.2-25.9s-44.1,8.6-60.9,25.9c-16.3,16.8-24.5,40.1-24.5,70s8.2,53.7,24.5,71.4c16.8,17.3,37.1,25.9,60.9,25.9s43.9-8.6,60.2-25.9c16.8-17.3,25.2-40.8,25.2-70.7ZM8729.5,3803.7c11.2-18.2,27.3-32.9,48.3-44.1,21-11.2,45-16.8,72.1-16.8s61.4,8.2,87.5,24.5c26.1,16.3,46.7,39.7,61.6,70,15.4,30.3,23.1,65.6,23.1,105.7s-7.7,75.6-23.1,106.4c-14.9,30.3-35.5,53.9-61.6,70.7-26.1,16.3-55.3,24.5-87.5,24.5s-51.6-5.4-72.1-16.1c-20.5-11.2-36.6-25.9-48.3-44.1v54.6h-119.7v-518h119.7v182.7ZM8900.3,3943c0-29.9-8.4-53.2-25.2-70-16.3-17.3-36.6-25.9-60.9-25.9s-44.1,8.6-60.9,25.9c-16.3,17.3-24.5,40.8-24.5,70.7s8.2,53.4,24.5,70.7c16.8,17.3,37.1,25.9,60.9,25.9s44.1-8.6,60.9-25.9c16.8-17.7,25.2-41.5,25.2-71.4ZM9483.9,3748.4l-245,576.1h-128.8l89.6-198.8-158.9-377.3h133.7l90.3,244.3,89.6-244.3h129.5ZM9787.5,4040.3h169.4v98.7h-303.1v-95.2l162.4-196.7h-161v-98.7h298.2v95.2l-165.9,196.7ZM10391,3937.4c0,11.2-.7,22.9-2.1,35h-270.9c1.9,24.3,9.6,42.9,23.1,56,14,12.6,31,18.9,51.1,18.9,29.9,0,50.6-12.6,62.3-37.8h127.4c-6.5,25.7-18.4,48.8-35.7,69.3-16.8,20.5-38,36.6-63.7,48.3s-54.4,17.5-86.1,17.5-72.3-8.2-102.2-24.5c-29.9-16.3-53.2-39.7-70-70-16.8-30.3-25.2-65.8-25.2-106.4s8.2-76.1,24.5-106.4c16.8-30.3,40.1-53.7,70-70,29.9-16.3,64.2-24.5,102.9-24.5s71.4,7.9,100.8,23.8c29.4,15.9,52.3,38.5,68.6,67.9,16.8,29.4,25.2,63.7,25.2,102.9ZM10268.5,3905.9c0-20.5-7-36.9-21-49-14-12.1-31.5-18.2-52.5-18.2s-37.1,5.8-51.1,17.5c-13.5,11.7-21.9,28.2-25.2,49.7h149.8ZM10692.2,3744.2c45.7,0,82.1,14.9,109.2,44.8,27.5,29.4,41.3,70,41.3,121.8v228.2h-119v-212.1c0-26.1-6.8-46.4-20.3-60.9-13.6-14.5-31.8-21.7-54.6-21.7s-41.1,7.2-54.6,21.7c-13.6,14.5-20.3,34.8-20.3,60.9v212.1h-119.7v-390.6h119.7v51.8c12.1-17.3,28.4-30.8,49-40.6,20.5-10.3,43.6-15.4,69.3-15.4ZM11252,3803c-8.8-16.3-21.7-28.7-38.5-37.1-16.3-8.9-35.7-13.3-58.1-13.3-38.7,0-69.7,12.8-93.1,38.5-23.3,25.2-35,59-35,101.5s12.2,80.7,36.4,106.4c24.8,25.2,58.6,37.8,101.5,37.8s54.2-7.5,74.2-22.4c20.6-14.9,35.5-36.4,44.8-64.4h-151.9v-88.2h260.4v111.3c-8.8,29.9-24,57.6-45.5,83.3-21,25.7-47.8,46.4-80.5,62.3-32.6,15.9-69.5,23.8-110.6,23.8s-91.9-10.5-130.2-31.5c-37.8-21.5-67.4-51.1-88.9-88.9-21-37.8-31.5-81-31.5-129.5s10.5-91.7,31.5-129.5c21.5-38.3,51.1-67.9,88.9-88.9,37.8-21.5,81-32.2,129.5-32.2s108.3,14.2,148.4,42.7c40.6,28.5,67.5,67.9,80.5,118.3h-132.3ZM11435.2,3943c0-40.1,7.5-75.4,22.4-105.7,15.4-30.3,36.2-53.7,62.3-70,26.2-16.3,55.3-24.5,87.5-24.5s51.6,5.6,72.1,16.8c21,11.2,37.1,25.9,48.3,44.1v-55.3h119.7v390.6h-119.7v-55.3c-11.6,18.2-28,32.9-49,44.1-20.5,11.2-44.5,16.8-72.1,16.8s-60.6-8.2-86.8-24.5c-26.1-16.8-46.9-40.4-62.3-70.7-14.9-30.8-22.4-66.3-22.4-106.4ZM11727.8,3943.7c0-29.9-8.4-53.4-25.2-70.7-16.3-17.3-36.4-25.9-60.2-25.9s-44.1,8.6-60.9,25.9c-16.3,16.8-24.5,40.1-24.5,70s8.2,53.7,24.5,71.4c16.8,17.3,37.1,25.9,60.9,25.9s43.9-8.6,60.2-25.9c16.8-17.3,25.2-40.8,25.2-70.7ZM12151.8,4037.5v101.5h-60.9c-43.4,0-77.2-10.5-101.5-31.5-24.2-21.5-36.4-56.2-36.4-104.3v-155.4h-47.6v-99.4h47.6v-95.2h119.7v95.2h78.4v99.4h-78.4v156.8c0,11.7,2.8,20.1,8.4,25.2,5.6,5.1,15,7.7,28,7.7h42.7ZM12586.7,3937.4c0,11.2-.7,22.9-2.1,35h-270.9c1.9,24.3,9.6,42.9,23.1,56,14,12.6,31,18.9,51.1,18.9,29.9,0,50.6-12.6,62.3-37.8h127.4c-6.5,25.7-18.4,48.8-35.7,69.3-16.8,20.5-38,36.6-63.7,48.3s-54.4,17.5-86.1,17.5-72.3-8.2-102.2-24.5c-29.9-16.3-53.2-39.7-70-70-16.8-30.3-25.2-65.8-25.2-106.4s8.2-76.1,24.5-106.4c16.8-30.3,40.1-53.7,70-70,29.9-16.3,64.2-24.5,102.9-24.5s71.4,7.9,100.8,23.8c29.4,15.9,52.3,38.5,68.6,67.9,16.8,29.4,25.2,63.7,25.2,102.9ZM12464.2,3905.9c0-20.5-7-36.9-21-49-14-12.1-31.5-18.2-52.5-18.2s-37.1,5.8-51.1,17.5c-13.5,11.7-21.9,28.2-25.2,49.7h149.8Z"/>
    </g>
  </g>
</svg>