<svg width="120" height="36" viewBox="0 0 120 36" fill="none" xmlns="http://www.w3.org/2000/svg">
<circle cx="7.80211" cy="27.3622" r="1.17027" fill="#5984EF"/>
<circle cx="10.9227" cy="24.2413" r="1.17027" fill="#5984EF"/>
<circle cx="14.0438" cy="21.1207" r="1.17027" fill="#5984EF"/>
<circle cx="17.164" cy="17.9998" r="1.46284" fill="#23527D"/>
<circle cx="14.0435" cy="14.8792" r="1.36532" fill="#23527D"/>
<circle cx="10.9226" cy="11.7584" r="1.2678" fill="#23527D"/>
<circle cx="7.80211" cy="8.6378" r="1.17027" fill="#23527D"/>
<circle cx="14.0438" cy="27.3622" r="1.17027" fill="#5984EF"/>
<circle cx="17.1644" cy="24.2413" r="1.17027" fill="#5984EF"/>
<circle cx="20.285" cy="21.1207" r="1.56036" fill="#23527D"/>
<circle cx="23.4052" cy="17.9998" r="1.46284" fill="#59CCEF"/>
<circle cx="20.2848" cy="14.8792" r="1.36532" fill="#59CCEF"/>
<circle cx="17.1643" cy="11.7584" r="1.2678" fill="#59CCEF"/>
<circle cx="14.0438" cy="8.6378" r="1.17027" fill="#59CCEF"/>
<circle cx="20.285" cy="27.3622" r="1.17027" fill="#5984EF"/>
<circle cx="23.4056" cy="24.2414" r="1.56036" fill="#23527D"/>
<circle cx="26.5267" cy="21.1207" r="1.56036" fill="#59CCEF"/>
<circle cx="29.6473" cy="17.9999" r="1.56036" fill="#9CC952"/>
<circle cx="26.5265" cy="14.8792" r="1.36532" fill="#9CC952"/>
<circle cx="23.4055" cy="11.7584" r="1.2678" fill="#9CC952"/>
<circle cx="20.285" cy="8.6378" r="1.17027" fill="#9CC952"/>
<path d="M38.6323 24.5V10.8823H41.5114V22.1262H47.3495V24.5H38.6323ZM53.8575 24.6995C52.8069 24.6995 51.9026 24.4867 51.1446 24.0611C50.391 23.6312 49.8103 23.0239 49.4025 22.2392C48.9946 21.4502 48.7907 20.5171 48.7907 19.4399C48.7907 18.3893 48.9946 17.4673 49.4025 16.6738C49.8103 15.8803 50.3843 15.2619 51.1246 14.8186C51.8694 14.3754 52.7426 14.1537 53.7445 14.1537C54.4182 14.1537 55.0455 14.2623 55.6262 14.4795C56.2113 14.6923 56.7211 15.0137 57.1555 15.4437C57.5944 15.8737 57.9357 16.4145 58.1795 17.0661C58.4233 17.7133 58.5452 18.4713 58.5452 19.3402V20.1181H49.9211V18.3627H55.8789C55.8789 17.9549 55.7902 17.5936 55.6129 17.2789C55.4356 16.9642 55.1896 16.7181 54.8748 16.5408C54.5645 16.3591 54.2033 16.2682 53.791 16.2682C53.361 16.2682 52.9798 16.3679 52.6473 16.5674C52.3193 16.7625 52.0622 17.0262 51.876 17.3587C51.6898 17.6867 51.5945 18.0524 51.5901 18.4558V20.1248C51.5901 20.6301 51.6832 21.0668 51.8694 21.4347C52.06 21.8026 52.3282 22.0863 52.6739 22.2858C53.0197 22.4853 53.4297 22.585 53.904 22.585C54.2188 22.585 54.5069 22.5407 54.7684 22.452C55.03 22.3634 55.2538 22.2304 55.44 22.0531C55.6262 21.8758 55.768 21.6585 55.8656 21.4014L58.4854 21.5743C58.3524 22.2038 58.0798 22.7535 57.6675 23.2233C57.2597 23.6888 56.7322 24.0523 56.085 24.3138C55.4422 24.5709 54.6997 24.6995 53.8575 24.6995ZM63.3061 24.6928C62.6545 24.6928 62.0738 24.5798 61.564 24.3537C61.0542 24.1232 60.6508 23.7841 60.3538 23.3364C60.0613 22.8842 59.915 22.3213 59.915 21.6475C59.915 21.0801 60.0192 20.6035 60.2275 20.2179C60.4358 19.8322 60.7195 19.5219 61.0786 19.287C61.4377 19.052 61.8455 18.8747 62.3021 18.755C62.7631 18.6353 63.2463 18.5511 63.7516 18.5024C64.3456 18.4403 64.8244 18.3827 65.1879 18.3295C65.5514 18.2718 65.8151 18.1876 65.9791 18.0768C66.1431 17.966 66.2251 17.802 66.2251 17.5847V17.5449C66.2251 17.1237 66.0922 16.7979 65.8262 16.5674C65.5647 16.3369 65.1923 16.2216 64.7091 16.2216C64.1993 16.2216 63.7937 16.3347 63.4923 16.5608C63.1909 16.7824 62.9914 17.0617 62.8939 17.3986L60.274 17.1858C60.407 16.5652 60.6686 16.0288 61.0587 15.5767C61.4487 15.1201 61.9519 14.7699 62.568 14.5261C63.1886 14.2778 63.9068 14.1537 64.7224 14.1537C65.2898 14.1537 65.8328 14.2202 66.3515 14.3532C66.8746 14.4862 67.3378 14.6923 67.7412 14.9716C68.149 15.2509 68.4704 15.6099 68.7053 16.0488C68.9403 16.4832 69.0577 17.004 69.0577 17.6113V24.5H66.3714V23.0837H66.2916C66.1276 23.4029 65.9082 23.6844 65.6334 23.9282C65.3585 24.1675 65.0283 24.3559 64.6426 24.4934C64.257 24.6263 63.8115 24.6928 63.3061 24.6928ZM64.1173 22.7379C64.534 22.7379 64.9019 22.6559 65.2211 22.4919C65.5403 22.3235 65.7907 22.0974 65.9725 21.8137C66.1542 21.53 66.2451 21.2086 66.2451 20.8495V19.7657C66.1564 19.8233 66.0345 19.8765 65.8794 19.9253C65.7287 19.9696 65.558 20.0117 65.3674 20.0516C65.1768 20.0871 64.9862 20.1203 64.7956 20.1514C64.6049 20.178 64.4321 20.2023 64.2769 20.2245C63.9444 20.2733 63.6541 20.3508 63.4059 20.4572C63.1576 20.5636 62.9648 20.7077 62.8274 20.8894C62.6899 21.0668 62.6212 21.2884 62.6212 21.5544C62.6212 21.94 62.7609 22.2348 63.0401 22.4387C63.3238 22.6382 63.6829 22.7379 64.1173 22.7379ZM75.0188 24.6662C74.2431 24.6662 73.5405 24.4668 72.911 24.0678C72.286 23.6644 71.7895 23.0726 71.4216 22.2924C71.0581 21.5078 70.8763 20.5459 70.8763 19.4067C70.8763 18.2364 71.0647 17.2634 71.4415 16.4876C71.8183 15.7074 72.3192 15.1245 72.9442 14.7389C73.5737 14.3488 74.263 14.1537 75.0122 14.1537C75.584 14.1537 76.0605 14.2512 76.4418 14.4463C76.8274 14.6369 77.1377 14.8763 77.3727 15.1644C77.612 15.4481 77.7938 15.7274 77.9179 16.0022H78.0043V10.8823H80.8303V24.5H78.0376V22.8643H77.9179C77.7849 23.148 77.5965 23.4295 77.3527 23.7087C77.1133 23.9836 76.8008 24.2119 76.4152 24.3936C76.0339 24.5754 75.5685 24.6662 75.0188 24.6662ZM75.9165 22.4121C76.3731 22.4121 76.7587 22.288 77.0734 22.0398C77.3926 21.7871 77.6364 21.4347 77.8049 20.9825C77.9777 20.5304 78.0642 20.0007 78.0642 19.3934C78.0642 18.7861 77.98 18.2585 77.8115 17.8108C77.6431 17.3631 77.3993 17.0173 77.0801 16.7735C76.7609 16.5297 76.3731 16.4078 75.9165 16.4078C75.451 16.4078 75.0587 16.5342 74.7395 16.7868C74.4204 17.0395 74.1788 17.3897 74.0148 17.8374C73.8508 18.2851 73.7688 18.8038 73.7688 19.3934C73.7688 19.9874 73.8508 20.5126 74.0148 20.9692C74.1832 21.4214 74.4248 21.776 74.7395 22.0331C75.0587 22.2858 75.451 22.4121 75.9165 22.4121ZM92.2421 15.2841C92.149 14.9605 92.0183 14.6746 91.8498 14.4263C91.6814 14.1737 91.4752 13.9609 91.2314 13.788C90.992 13.6107 90.7172 13.4755 90.4069 13.3824C90.101 13.2893 89.7619 13.2428 89.3896 13.2428C88.6936 13.2428 88.0819 13.4157 87.5544 13.7614C87.0313 14.1072 86.6235 14.6103 86.3309 15.2708C86.0383 15.9269 85.8921 16.7292 85.8921 17.6778C85.8921 18.6265 86.0361 19.4332 86.3243 20.0982C86.6124 20.7631 87.0202 21.2707 87.5477 21.6209C88.0752 21.9666 88.698 22.1395 89.4162 22.1395C90.0678 22.1395 90.6241 22.0243 91.0851 21.7937C91.5506 21.5588 91.9052 21.2286 92.149 20.803C92.3973 20.3774 92.5214 19.8743 92.5214 19.2936L93.1065 19.3801H89.5957V17.2124H95.2941V18.9279C95.2941 20.1248 95.0415 21.1532 94.5361 22.0132C94.0308 22.8687 93.3348 23.5292 92.4482 23.9947C91.5617 24.4557 90.5465 24.6862 89.4029 24.6862C88.1262 24.6862 87.0047 24.4047 86.0383 23.8417C85.072 23.2743 84.3184 22.4698 83.7776 21.428C83.2412 20.3819 82.973 19.1407 82.973 17.7044C82.973 16.6007 83.1326 15.6166 83.4518 14.7522C83.7754 13.8833 84.2275 13.1475 84.8082 12.5446C85.3889 11.9417 86.0649 11.4829 86.8362 11.1682C87.6076 10.8535 88.4432 10.6961 89.343 10.6961C90.1143 10.6961 90.8325 10.8091 91.4974 11.0352C92.1623 11.2569 92.7519 11.5716 93.2661 11.9794C93.7847 12.3872 94.2081 12.8726 94.5361 13.4356C94.8641 13.9941 95.0747 14.6103 95.1678 15.2841H92.2421ZM102.058 24.6995C101.008 24.6995 100.103 24.4867 99.3452 24.0611C98.5916 23.6312 98.0109 23.0239 97.6031 22.2392C97.1953 21.4502 96.9914 20.5171 96.9914 19.4399C96.9914 18.3893 97.1953 17.4673 97.6031 16.6738C98.0109 15.8803 98.585 15.2619 99.3253 14.8186C100.07 14.3754 100.943 14.1537 101.945 14.1537C102.619 14.1537 103.246 14.2623 103.827 14.4795C104.412 14.6923 104.922 15.0137 105.356 15.4437C105.795 15.8737 106.136 16.4145 106.38 17.0661C106.624 17.7133 106.746 18.4713 106.746 19.3402V20.1181H98.1217V18.3627H104.079C104.079 17.9549 103.991 17.5936 103.814 17.2789C103.636 16.9642 103.39 16.7181 103.075 16.5408C102.765 16.3591 102.404 16.2682 101.992 16.2682C101.562 16.2682 101.18 16.3679 100.848 16.5674C100.52 16.7625 100.263 17.0262 100.077 17.3587C99.8904 17.6867 99.7951 18.0524 99.7907 18.4558V20.1248C99.7907 20.6301 99.8838 21.0668 100.07 21.4347C100.261 21.8026 100.529 22.0863 100.875 22.2858C101.22 22.4853 101.63 22.585 102.105 22.585C102.419 22.585 102.708 22.5407 102.969 22.452C103.231 22.3634 103.454 22.2304 103.641 22.0531C103.827 21.8758 103.969 21.6585 104.066 21.4014L106.686 21.5743C106.553 22.2038 106.28 22.7535 105.868 23.2233C105.46 23.6888 104.933 24.0523 104.286 24.3138C103.643 24.5709 102.9 24.6995 102.058 24.6995ZM111.427 18.5954V24.5H108.594V14.2867H111.294V16.0887H111.414C111.64 15.4947 112.019 15.0248 112.551 14.679C113.083 14.3288 113.728 14.1537 114.486 14.1537C115.195 14.1537 115.813 14.3089 116.341 14.6192C116.868 14.9295 117.278 15.3728 117.571 15.949C117.863 16.5209 118.01 17.2035 118.01 17.997V24.5H115.177V18.5024C115.182 17.8773 115.022 17.3897 114.698 17.0395C114.375 16.6849 113.929 16.5076 113.362 16.5076C112.981 16.5076 112.644 16.5896 112.351 16.7536C112.063 16.9176 111.837 17.157 111.673 17.4717C111.513 17.782 111.431 18.1566 111.427 18.5954Z" fill="#212529"/>
</svg>
