<?xml version="1.0" encoding="UTF-8"?>
<svg xmlns="http://www.w3.org/2000/svg" version="1.1" viewBox="0 0 1401 252">
  <defs>
    <style>
      .cls-1 {
        fill: #021205;
      }
    </style>
  </defs>
  <!-- Generator: Adobe Illustrator 28.7.1, SVG Export Plug-In . SVG Version: 1.2.0 Build 142)  -->
  <g>
    <g id="Layer_1">
      <path class="cls-1" d="M378,250.9V69.1l130.9,181.8h46.9V.1h-43.3v181.7L380.5.1h-46.2v250.8h43.6Z"/>
      <path class="cls-1" d="M852.3,60h1.1v190.9h43.6V.1h-64.4l-73.1,201.3L685.4.1h-65.1v250.8h43.6V60l70.9,191.3h47.6l69.8-191.3Z"/>
      <path class="cls-1" d="M961.8.1v250.8h44v-76l37.4-40.4,73.8,116.4h52.4l-95.6-151.3L1159.6.1h-55.6l-64.4,77.7-33.8,42.5V.1h-44Z"/>
      <path class="cls-1" d="M1397.9,75.6c0-56.7-36.7-75.6-88-75.6h-107.3v250.9h44v-98.9h56.7l48.7,98.9h48.4v-2.5l-52.7-101.8c28.7-8.4,50.2-30.9,50.2-70.9ZM1246.7,37.1h63.3c27.3,0,43.3,13.5,43.3,38.9s-16.7,38.9-43.3,38.9h-63.3V37.1Z"/>
      <path class="cls-1" d="M0,104.5V0h229.9v104.5h-41.8v31.3l-62.7-31.3v31.3l-62.7-31.3v31.3L0,104.5Z"/>
      <path class="cls-1" d="M0,209v41.8h229.9v-41.8H0Z"/>
    </g>
  </g>
</svg>