<?xml version="1.0" encoding="UTF-8"?><svg id="Layer_2" xmlns="http://www.w3.org/2000/svg" viewBox="0 0 985.26 240"><defs><style>.cls-1{fill:#121212;}</style></defs><g id="Shapes"><g id="Logo"><g id="Logotype"><path class="cls-1" d="M352.83,194.17c-8.94,0-16.73-1.15-23.37-3.45-6.64-2.3-12.12-4.88-16.46-7.72-5.15-3.25-9.48-6.98-13-11.18l17.27-17.27c2.44,2.98,5.42,5.69,8.94,8.13,2.98,2.03,6.67,3.9,11.07,5.59,4.4,1.7,9.58,2.54,15.54,2.54,8.13,0,14.39-1.93,18.8-5.79,4.4-3.86,6.6-8.36,6.6-13.51,0-4.74-1.8-8.43-5.38-11.07-3.59-2.64-8.1-4.94-13.51-6.91-5.42-1.96-11.31-3.89-17.68-5.79-6.37-1.9-12.26-4.47-17.68-7.72-5.42-3.25-9.92-7.48-13.51-12.7-3.59-5.21-5.38-12.16-5.38-20.83,0-5.28,1.15-10.39,3.45-15.34,2.3-4.94,5.62-9.28,9.96-13,4.33-3.72,9.58-6.71,15.75-8.94,6.16-2.23,13.04-3.35,20.62-3.35s14.39,1.02,20.01,3.05c5.62,2.03,10.39,4.27,14.33,6.71,4.47,2.84,8.26,6.03,11.38,9.55l-17.27,17.27c-2.03-2.44-4.47-4.6-7.31-6.5-2.44-1.63-5.42-3.15-8.94-4.57-3.52-1.42-7.59-2.13-12.19-2.13-7.72,0-13.55,1.73-17.47,5.18-3.93,3.45-5.89,7.49-5.89,12.09s1.79,8.43,5.38,11.07c3.59,2.64,8.09,4.95,13.51,6.91,5.42,1.96,11.31,3.89,17.68,5.79,6.37,1.9,12.26,4.47,17.68,7.72,5.42,3.25,9.92,7.49,13.51,12.7,3.59,5.22,5.38,12.16,5.38,20.83,0,5.56-1.22,10.91-3.66,16.05-2.44,5.15-5.93,9.69-10.46,13.61-4.54,3.93-9.99,7.08-16.36,9.45-6.37,2.37-13.48,3.56-21.34,3.56Z"/><path class="cls-1" d="M468.59,193.15c-7.18,0-13.89-1.36-20.12-4.06-6.23-2.71-11.72-6.43-16.46-11.18-4.74-4.74-8.47-10.23-11.18-16.46-2.71-6.23-4.06-12.93-4.06-20.12s1.35-13.72,4.06-20.01c2.71-6.3,6.43-11.82,11.18-16.56,4.74-4.74,10.23-8.46,16.46-11.18,6.23-2.71,12.93-4.06,20.12-4.06s13.72,1.36,20.01,4.06c6.3,2.71,11.82,6.44,16.56,11.18,4.74,4.74,8.46,10.26,11.18,16.56,2.71,6.3,4.06,12.97,4.06,20.01s-1.36,13.89-4.06,20.12c-2.71,6.23-6.44,11.72-11.18,16.46-4.74,4.74-10.26,8.47-16.56,11.18-6.3,2.71-12.97,4.06-20.01,4.06ZM468.59,170.8c4.06,0,7.82-.71,11.28-2.13,3.45-1.42,6.47-3.45,9.04-6.1,2.57-2.64,4.57-5.76,5.99-9.35,1.42-3.59,2.13-7.55,2.13-11.89s-.71-8.3-2.13-11.89c-1.42-3.59-3.42-6.7-5.99-9.35-2.57-2.64-5.59-4.67-9.04-6.1-3.45-1.42-7.21-2.13-11.28-2.13s-7.82.71-11.28,2.13c-3.45,1.42-6.47,3.45-9.04,6.1-2.57,2.64-4.57,5.76-5.99,9.35-1.42,3.59-2.13,7.55-2.13,11.89s.71,8.3,2.13,11.89c1.42,3.59,3.42,6.71,5.99,9.35,2.57,2.64,5.59,4.67,9.04,6.1,3.45,1.42,7.21,2.13,11.28,2.13Z"/><path class="cls-1" d="M582.96,193.15c-7.18,0-13.89-1.36-20.12-4.06-6.23-2.71-11.72-6.43-16.46-11.18-4.74-4.74-8.47-10.23-11.18-16.46-2.71-6.23-4.06-12.93-4.06-20.12s1.35-13.72,4.06-20.01c2.71-6.3,6.43-11.82,11.18-16.56,4.74-4.74,10.23-8.46,16.46-11.18,6.23-2.71,12.93-4.06,20.12-4.06s13.34,1.05,18.49,3.15c5.15,2.1,9.48,4.44,13,7.01,4.06,2.98,7.45,6.37,10.16,10.16l-15.24,15.24c-2.17-2.44-4.54-4.6-7.11-6.5-2.3-1.63-5.08-3.15-8.33-4.57s-6.91-2.13-10.97-2.13-7.82.71-11.28,2.13c-3.45,1.42-6.47,3.45-9.04,6.1-2.57,2.64-4.57,5.76-5.99,9.35-1.42,3.59-2.13,7.55-2.13,11.89s.71,8.3,2.13,11.89c1.42,3.59,3.42,6.71,5.99,9.35,2.57,2.64,5.59,4.67,9.04,6.1,3.45,1.42,7.21,2.13,11.28,2.13s7.72-.68,10.97-2.03c3.25-1.35,6.03-2.84,8.33-4.47,2.57-1.9,4.94-4.13,7.11-6.71l15.24,15.24c-2.71,3.79-6.1,7.18-10.16,10.16-3.52,2.57-7.86,4.91-13,7.01-5.15,2.1-11.31,3.15-18.49,3.15Z"/><path class="cls-1" d="M651.07,77.33c-4.06,0-7.45-1.35-10.16-4.06-2.71-2.71-4.06-6.1-4.06-10.16s1.35-7.45,4.06-10.16,6.1-4.06,10.16-4.06,7.45,1.36,10.16,4.06c2.71,2.71,4.06,6.1,4.06,10.16s-1.36,7.45-4.06,10.16c-2.71,2.71-6.1,4.06-10.16,4.06ZM638.88,91.55h23.37v99.57h-23.37v-99.57Z"/><path class="cls-1" d="M730.72,193.15c-7.18,0-13.89-1.36-20.12-4.06-6.23-2.71-11.72-6.43-16.46-11.18-4.74-4.74-8.47-10.23-11.18-16.46-2.71-6.23-4.06-12.93-4.06-20.12s1.35-13.72,4.06-20.01c2.71-6.3,6.43-11.82,11.18-16.56,4.74-4.74,10.23-8.46,16.46-11.18,6.23-2.71,12.93-4.06,20.12-4.06s13.72,1.36,20.01,4.06c6.3,2.71,11.82,6.44,16.56,11.18,4.74,4.74,8.46,10.26,11.18,16.56,2.71,6.3,4.06,12.97,4.06,20.01s-1.35,13.89-4.06,20.12c-2.71,6.23-6.44,11.72-11.18,16.46-4.74,4.74-10.26,8.47-16.56,11.18-6.3,2.71-12.97,4.06-20.01,4.06ZM730.72,170.8c4.06,0,7.82-.71,11.28-2.13,3.45-1.42,6.47-3.45,9.04-6.1,2.57-2.64,4.57-5.76,5.99-9.35,1.42-3.59,2.13-7.55,2.13-11.89s-.71-8.3-2.13-11.89c-1.42-3.59-3.42-6.7-5.99-9.35-2.57-2.64-5.59-4.67-9.04-6.1-3.45-1.42-7.21-2.13-11.28-2.13s-7.82.71-11.28,2.13c-3.45,1.42-6.47,3.45-9.04,6.1-2.57,2.64-4.57,5.76-5.99,9.35-1.42,3.59-2.13,7.55-2.13,11.89s.71,8.3,2.13,11.89c1.42,3.59,3.42,6.71,5.99,9.35,2.57,2.64,5.59,4.67,9.04,6.1,3.45,1.42,7.21,2.13,11.28,2.13Z"/><path class="cls-1" d="M836.48,193.15c-5.28,0-10.23-.98-14.83-2.95-4.61-1.96-8.6-4.77-11.99-8.43-3.39-3.66-6.03-8.13-7.92-13.41-1.9-5.28-2.84-11.24-2.84-17.88v-58.93h23.37v55.68c0,7.31,1.86,12.9,5.59,16.76,3.72,3.86,8.64,5.79,14.73,5.79,7.18,0,13.04-2.3,17.58-6.91,4.54-4.6,6.81-10.77,6.81-18.49v-52.83h23.37v99.57h-23.37v-14.22h-1.02c-2.17,2.98-4.67,5.69-7.52,8.13-2.44,2.03-5.52,3.89-9.24,5.59-3.73,1.69-7.96,2.54-12.7,2.54Z"/><path class="cls-1" d="M945.64,193.15c-6.64,0-12.43-.95-17.37-2.84-4.95-1.9-9.18-3.99-12.7-6.3-4.06-2.57-7.59-5.62-10.57-9.14l15.24-15.24c2.03,2.3,4.33,4.34,6.91,6.1,2.3,1.49,4.98,2.88,8.03,4.17,3.05,1.29,6.53,1.93,10.46,1.93,5.15,0,8.97-1.02,11.48-3.05,2.51-2.03,3.76-4.4,3.76-7.11,0-2.16-1.29-3.93-3.86-5.28-2.57-1.35-5.76-2.64-9.55-3.86-3.79-1.22-7.96-2.57-12.5-4.06-4.54-1.49-8.71-3.38-12.5-5.69-3.79-2.3-6.98-5.28-9.55-8.94-2.57-3.66-3.86-8.26-3.86-13.82,0-4.06.84-7.92,2.54-11.58,1.69-3.66,4.17-6.91,7.42-9.75,3.25-2.84,7.21-5.08,11.89-6.7,4.67-1.63,9.92-2.44,15.75-2.44s11.41.81,15.95,2.44c4.54,1.63,8.36,3.39,11.48,5.28,3.52,2.31,6.57,4.81,9.14,7.52l-15.24,15.24c-1.63-1.49-3.52-2.84-5.69-4.06-1.9-1.08-4.16-2.03-6.81-2.84-2.64-.81-5.59-1.22-8.84-1.22-4.61,0-7.96.85-10.06,2.54-2.1,1.7-3.15,3.56-3.15,5.59,0,2.17,1.29,3.93,3.86,5.28,2.57,1.36,5.76,2.64,9.55,3.86,3.79,1.22,7.96,2.57,12.5,4.06,4.54,1.49,8.7,3.39,12.5,5.69,3.79,2.31,6.98,5.28,9.55,8.94,2.57,3.66,3.86,8.26,3.86,13.82,0,4.2-.88,8.2-2.64,11.99-1.76,3.79-4.34,7.15-7.72,10.06-3.39,2.91-7.55,5.22-12.5,6.91-4.95,1.69-10.53,2.54-16.76,2.54Z"/></g><g id="Logomark"><path class="cls-1" d="M236.33,71.82c-6.9-16.65-22.08-27.37-38.79-29.36-1.99-16.71-12.7-31.89-29.36-38.79-16.65-6.9-34.96-3.74-48.18,6.67C106.78-.07,88.47-3.23,71.82,3.67c-16.65,6.9-27.37,22.08-29.36,38.79-16.71,1.99-31.89,12.7-38.79,29.36C-3.23,88.47-.07,106.78,10.34,120-.07,133.22-3.23,151.53,3.67,168.18s22.08,27.37,38.79,29.36c1.99,16.71,12.7,31.89,29.36,38.79,16.65,6.9,34.96,3.74,48.18-6.67,13.22,10.41,31.53,13.57,48.18,6.67,16.65-6.9,27.37-22.08,29.36-38.79,16.71-1.99,31.89-12.7,38.79-29.36,6.9-16.65,3.74-34.96-6.67-48.18,10.41-13.22,13.57-31.53,6.67-48.18ZM212.94,111.26l-10.66,10.66s0,0,0,0l-22.67,22.68v25.39l.04.04,36.89-36.89c5.39,8,6.81,18.46,2.84,28.04-4.74,11.45-15.81,18.36-27.48,18.37h0s-15.08,0-15.08,0c0,0,0,0,0,0h-32.06s-17.95,17.96-17.95,17.96v.05h52.17c-1.84,9.47-8.24,17.87-17.82,21.83-11.45,4.74-24.17,1.8-32.42-6.45h0s-10.66-10.66-10.66-10.66c0,0,0,0,0,0l-22.68-22.67h-25.39s-.04.04-.04.04l36.89,36.89c-8,5.39-18.46,6.81-28.04,2.84-11.45-4.74-18.36-15.81-18.37-27.48h-.28v-14.95s0,0,0,0v-32.18s-17.96-17.95-17.96-17.95h-.05v52.12c-9.36-1.91-17.63-8.28-21.56-17.77-4.74-11.45-1.8-24.17,6.45-32.42h0s10.66-10.66,10.66-10.66c0,0,0,0,0,0l22.66-22.68v-25.39l-.04-.04-36.89,36.89c-5.39-8-6.81-18.46-2.84-28.04,4.74-11.45,15.81-18.36,27.48-18.37h0s15.08,0,15.08,0c0,0,0,0,0,0h32.06s17.95-17.96,17.95-17.96v-.05h-52.17c1.84-9.47,8.24-17.87,17.82-21.83,11.45-4.74,24.17-1.8,32.42,6.45h0s10.66,10.66,10.66,10.66c0,0,0,0,0,0l22.68,22.67h25.39s.04-.04.04-.04l-36.89-36.89c8-5.39,18.46-6.81,28.04-2.84,11.45,4.74,18.36,15.81,18.37,27.48h0v15.08s0,0,0,0v32.06s17.96,17.95,17.96,17.95h.05v-52.17c9.47,1.84,17.87,8.24,21.83,17.82,4.74,11.45,1.8,24.17-6.45,32.42h0Z"/></g></g></g></svg>