<svg width="48" height="48" viewBox="0 0 48 48" fill="none" xmlns="http://www.w3.org/2000/svg">
<path fill-rule="evenodd" clip-rule="evenodd" d="M12.135 10.5007C15.3 7.71073 19.455 6.00073 24 6.00073L23.985 5.9707C33.915 5.9707 41.985 14.0407 41.985 23.9707C41.985 25.0657 41.88 26.1607 41.685 27.2407C41.535 28.0507 40.77 28.5908 39.945 28.4408C39.135 28.2908 38.595 27.5107 38.745 26.7007C38.91 25.8007 39 24.8857 39 23.9707C39 21.1357 38.19 18.4807 36.81 16.2157C36.27 17.2507 35.445 18.1208 34.425 18.6908C34.433 18.7623 34.442 18.8329 34.4509 18.9029C34.4757 19.097 34.5 19.2873 34.5 19.4857C34.5 21.1357 33.15 22.4857 31.5 22.4857H27C28.65 22.4857 30 23.8357 30 25.4857H31.5C33.15 25.4857 34.5 26.8357 34.5 28.4857C35.325 28.4857 36 29.1607 36 29.9857C36 30.8107 35.325 31.4857 34.5 31.4857C32.85 31.4857 31.5 30.1357 31.5 28.4857H30C28.35 28.4857 27 27.1357 27 25.4857C25.35 25.4857 24 24.1357 24 22.4857H25.5C25.5 20.8357 26.85 19.4857 28.5 19.4857H31.5C31.5 17.8357 30.15 16.4857 28.5 16.4857C26.85 16.4857 25.5 15.1357 25.5 13.4857H28.5C30.45 13.4857 32.175 14.4308 33.27 15.8858C34.02 15.3458 34.5 14.4757 34.5 13.4857H34.695C32.82 11.5807 30.42 10.1707 27.735 9.48074C27.18 10.0957 26.385 10.4857 25.5 10.4857H24C24 12.1357 22.65 13.4857 21 13.4857H13.305C12.84 13.9657 12.405 14.4908 12 15.0308V16.4857C15.315 16.4857 18 19.1707 18 22.4857C19.65 22.4857 21 23.8357 21 25.4857H22.5C24.15 25.4857 25.5 26.8357 25.5 28.4857V34.4857C25.5 35.3107 24.825 35.9857 24 35.9857C23.175 35.9857 22.5 35.3107 22.5 34.4857V28.4857C20.85 28.4857 19.5 27.1357 19.5 25.4857H18C16.35 25.4857 15 24.1357 15 22.4857C15 20.8357 13.65 19.4857 12 19.4857C11.22 19.4857 10.53 19.1858 9.99 18.6908C9.36 20.3408 9 22.1257 9 23.9857C9 31.8007 14.865 38.2208 22.635 38.9258C23.46 39.0008 24.075 39.7357 24 40.5607C23.925 41.3407 23.265 41.9258 22.5 41.9258H22.365C13.035 41.0858 6 33.3757 6 24.0007C6 18.6907 8.325 13.9208 12 10.6208V10.5007H12.135ZM19.635 9.64572C18.9 9.87072 18.195 10.1707 17.505 10.5007H19.5C19.5 10.2007 19.56 9.91572 19.635 9.64572Z" fill="#5984EF"/>
<path d="M29.7413 38.4863C30.9114 39.6564 32.8086 39.6564 33.9787 38.4863L41.4072 31.0578C41.9914 30.4736 42.9386 30.4736 43.5228 31.0578C44.1068 31.6418 44.1071 32.5885 43.5234 33.1729L33.9813 42.7262C32.8099 43.899 30.9095 43.8995 29.7374 42.7275L26.5575 39.5476C25.9729 38.9629 25.9712 38.0155 26.5537 37.4288C27.1393 36.8391 28.0925 36.8374 28.68 37.425L29.7413 38.4863Z" fill="#59CCEF"/>
</svg>
