<svg width="60" height="60" viewBox="0 0 60 60" fill="none" xmlns="http://www.w3.org/2000/svg">
<path d="M30 53.4375V34.6875L15 16.875M15 16.875V28.125M15 16.875H27.1875" stroke="#5984EF" stroke-width="3.75" stroke-linecap="round"/>
<path d="M45 26.25H46.875V24.375H45V26.25ZM43.125 35.625C43.125 36.6605 43.9645 37.5 45 37.5C46.0355 37.5 46.875 36.6605 46.875 35.625H43.125ZM35.625 24.375C34.5895 24.375 33.75 25.2145 33.75 26.25C33.75 27.2855 34.5895 28.125 35.625 28.125V24.375ZM30 38.4375L28.8176 36.9823L28.125 37.5451V38.4375H30ZM43.125 26.25V35.625H46.875V26.25H43.125ZM45 24.375H35.625V28.125H45V24.375ZM31.875 53.4375V38.4375H28.125V53.4375H31.875ZM31.1824 39.8927L46.1824 27.7052L43.8176 24.7948L28.8176 36.9823L31.1824 39.8927Z" fill="#5984EF"/>
<path d="M35.625 18.75L45.9375 9.375M45.9375 9.375H40.3125M45.9375 9.375V15" stroke="#59CCEF" stroke-width="3.75" stroke-linecap="round"/>
</svg>
