<svg width="48" height="48" viewBox="0 0 48 48" fill="none" xmlns="http://www.w3.org/2000/svg">
<path d="M20.52 41.926C20.685 41.971 20.835 42.001 21 42.001C21.165 42.001 21.33 41.971 21.48 41.926C21.57 41.896 23.685 41.176 26.28 39.586C26.985 39.151 27.21 38.221 26.775 37.516C26.34 36.811 25.41 36.586 24.705 37.021C23.115 38.011 21.705 38.611 21 38.896C18.72 37.996 9 33.571 9 24.001V12.001C9 11.236 13.125 9.00098 21 9.00098C28.875 9.00098 33 11.236 33 12.001V21.001C33 21.826 33.675 22.501 34.5 22.501C35.325 22.501 36 21.826 36 21.001V12.001C36 7.87598 28.23 6.00098 21 6.00098C13.77 6.00098 6 7.87598 6 12.001V24.001C6 36.931 19.92 41.731 20.52 41.926Z" fill="#5984EF"/>
<path fill-rule="evenodd" clip-rule="evenodd" d="M45 30V33C46.65 33 48 34.35 48 36V45C48 46.65 46.65 48 45 48H33C31.35 48 30 46.65 30 45V36C30 34.35 31.35 33 33 33V30C33 26.685 35.685 24 39 24C42.315 24 45 26.685 45 30ZM39 27C37.35 27 36 28.35 36 30V33H42V30C42 28.35 40.65 27 39 27ZM33 36V45H45V36H33Z" fill="#59CCEF"/>
</svg>
