<svg width="60" height="60" viewBox="0 0 60 60" fill="none" xmlns="http://www.w3.org/2000/svg">
<path d="M24.375 16.8755C24.375 15.8442 25.2188 15.0005 26.25 15.0005C30.3938 15.0005 33.75 18.3567 33.75 22.5005C33.75 23.5317 32.9063 24.3755 31.875 24.3755C30.8438 24.3755 30 23.5317 30 22.5005C30 20.438 28.3125 18.7505 26.25 18.7505C25.2188 18.7505 24.375 17.9067 24.375 16.8755Z" fill="#5984EF"/>
<path fill-rule="evenodd" clip-rule="evenodd" d="M26.25 7.50049C17.9813 7.50049 11.25 14.2317 11.25 22.5005C11.25 27.8349 13.4548 30.5908 15.4023 33.0252L15.4125 33.038C17.2125 35.2692 18.75 37.2192 18.75 41.2505V48.1255C18.75 49.5062 19.8693 50.6255 21.25 50.6255H23.025C23.6812 51.7505 24.8625 52.5005 26.25 52.5005C27.6375 52.5005 28.8375 51.7505 29.475 50.6255H30C32.0625 50.6255 33.75 48.938 33.75 46.8755V41.2505C33.75 37.2532 35.2801 35.3207 37.0425 33.0948L37.0875 33.038L37.0977 33.0252C39.0452 30.5908 41.25 27.8349 41.25 22.5005C41.25 14.2317 34.5187 7.50049 26.25 7.50049ZM22.5 46.8755V41.2505H30V46.8755H22.5ZM34.1625 30.713C32.7375 32.4942 31.1625 34.4817 30.4313 37.5005H22.0687C21.3375 34.463 19.7625 32.4942 18.3375 30.713C16.5375 28.4817 15 26.5317 15 22.5005C15 16.2942 20.0437 11.2505 26.25 11.2505C32.4563 11.2505 37.5 16.2942 37.5 22.5005C37.5 26.4977 35.9699 28.4303 34.2075 30.6561L34.1625 30.713Z" fill="#5984EF"/>
<path d="M39.3758 44.2154C38.6405 44.9492 38.6399 46.1403 39.3744 46.8749C40.1096 47.6101 41.3019 47.6088 42.0355 46.872L45.0002 43.8944V54.3757C45.0002 55.4112 45.8396 56.2507 46.8752 56.2507C47.9107 56.2507 48.7502 55.4112 48.7502 54.3757V43.8944L51.7149 46.872C52.4484 47.6088 53.6408 47.6101 54.3759 46.8749C55.1105 46.1403 55.1099 44.9492 54.3745 44.2154L46.8752 36.7319L39.3758 44.2154Z" fill="#59CCEF"/>
</svg>
